<svg width="630" height="630" viewBox="0 0 630 630" fill="none" xmlns="http://www.w3.org/2000/svg">
<path d="M124.464 50.0657C126.189 50.0657 127.587 48.6677 127.587 46.9433C127.587 45.2189 126.189 43.8209 124.464 43.8209C122.74 43.8209 121.342 45.2189 121.342 46.9433C121.342 48.6677 122.74 50.0657 124.464 50.0657Z" fill="#F0F1F7"/>
<path d="M143.091 50.0655C144.815 50.0655 146.213 48.6676 146.213 46.9432C146.213 45.2187 144.815 43.8208 143.091 43.8208C141.366 43.8208 139.968 45.2187 139.968 46.9432C139.968 48.6676 141.366 50.0655 143.091 50.0655Z" fill="#F0F1F7"/>
<path d="M161.717 50.0655C163.442 50.0655 164.84 48.6676 164.84 46.9432C164.84 45.2187 163.442 43.8208 161.717 43.8208C159.993 43.8208 158.595 45.2187 158.595 46.9432C158.595 48.6676 159.993 50.0655 161.717 50.0655Z" fill="#F0F1F7"/>
<path d="M180.451 50.0655C182.176 50.0655 183.574 48.6676 183.574 46.9432C183.574 45.2187 182.176 43.8208 180.451 43.8208C178.727 43.8208 177.329 45.2187 177.329 46.9432C177.329 48.6676 178.727 50.0655 180.451 50.0655Z" fill="#F0F1F7"/>
<path d="M124.464 69.0153C126.189 69.0153 127.587 67.6173 127.587 65.8929C127.587 64.1684 126.189 62.7705 124.464 62.7705C122.74 62.7705 121.342 64.1684 121.342 65.8929C121.342 67.6173 122.74 69.0153 124.464 69.0153Z" fill="#F0F1F7"/>
<path d="M143.091 69.0154C144.815 69.0154 146.213 67.6174 146.213 65.893C146.213 64.1686 144.815 62.7706 143.091 62.7706C141.366 62.7706 139.968 64.1686 139.968 65.893C139.968 67.6174 141.366 69.0154 143.091 69.0154Z" fill="#F0F1F7"/>
<path d="M161.717 69.0154C163.442 69.0154 164.84 67.6174 164.84 65.893C164.84 64.1686 163.442 62.7706 161.717 62.7706C159.993 62.7706 158.595 64.1686 158.595 65.893C158.595 67.6174 159.993 69.0154 161.717 69.0154Z" fill="#F0F1F7"/>
<path d="M180.451 69.0154C182.176 69.0154 183.574 67.6174 183.574 65.893C183.574 64.1686 182.176 62.7706 180.451 62.7706C178.727 62.7706 177.329 64.1686 177.329 65.893C177.329 67.6174 178.727 69.0154 180.451 69.0154Z" fill="#F0F1F7"/>
<path d="M124.464 87.9646C126.189 87.9646 127.587 86.5667 127.587 84.8422C127.587 83.1178 126.189 81.7198 124.464 81.7198C122.74 81.7198 121.342 83.1178 121.342 84.8422C121.342 86.5667 122.74 87.9646 124.464 87.9646Z" fill="#F0F1F7"/>
<path d="M143.091 87.9646C144.815 87.9646 146.213 86.5667 146.213 84.8422C146.213 83.1178 144.815 81.7198 143.091 81.7198C141.366 81.7198 139.968 83.1178 139.968 84.8422C139.968 86.5667 141.366 87.9646 143.091 87.9646Z" fill="#F0F1F7"/>
<path d="M161.717 87.9646C163.442 87.9646 164.84 86.5667 164.84 84.8422C164.84 83.1178 163.442 81.7198 161.717 81.7198C159.993 81.7198 158.595 83.1178 158.595 84.8422C158.595 86.5667 159.993 87.9646 161.717 87.9646Z" fill="#F0F1F7"/>
<path d="M180.451 87.9646C182.176 87.9646 183.574 86.5667 183.574 84.8422C183.574 83.1178 182.176 81.7198 180.451 81.7198C178.727 81.7198 177.329 83.1178 177.329 84.8422C177.329 86.5667 178.727 87.9646 180.451 87.9646Z" fill="#F0F1F7"/>
<path d="M124.464 106.914C126.189 106.914 127.587 105.516 127.587 103.792C127.587 102.068 126.189 100.67 124.464 100.67C122.74 100.67 121.342 102.068 121.342 103.792C121.342 105.516 122.74 106.914 124.464 106.914Z" fill="#F0F1F7"/>
<path d="M143.091 106.914C144.815 106.914 146.213 105.516 146.213 103.792C146.213 102.067 144.815 100.67 143.091 100.67C141.366 100.67 139.968 102.067 139.968 103.792C139.968 105.516 141.366 106.914 143.091 106.914Z" fill="#F0F1F7"/>
<path d="M161.717 106.914C163.442 106.914 164.84 105.516 164.84 103.792C164.84 102.067 163.442 100.67 161.717 100.67C159.993 100.67 158.595 102.067 158.595 103.792C158.595 105.516 159.993 106.914 161.717 106.914Z" fill="#F0F1F7"/>
<path d="M180.451 106.914C182.176 106.914 183.574 105.516 183.574 103.792C183.574 102.067 182.176 100.67 180.451 100.67C178.727 100.67 177.329 102.067 177.329 103.792C177.329 105.516 178.727 106.914 180.451 106.914Z" fill="#F0F1F7"/>
<path d="M124.464 125.864C126.189 125.864 127.587 124.466 127.587 122.741C127.587 121.017 126.189 119.619 124.464 119.619C122.74 119.619 121.342 121.017 121.342 122.741C121.342 124.466 122.74 125.864 124.464 125.864Z" fill="#F0F1F7"/>
<path d="M143.091 125.864C144.815 125.864 146.213 124.466 146.213 122.741C146.213 121.017 144.815 119.619 143.091 119.619C141.366 119.619 139.968 121.017 139.968 122.741C139.968 124.466 141.366 125.864 143.091 125.864Z" fill="#F0F1F7"/>
<path d="M161.717 125.864C163.442 125.864 164.84 124.466 164.84 122.741C164.84 121.017 163.442 119.619 161.717 119.619C159.993 119.619 158.595 121.017 158.595 122.741C158.595 124.466 159.993 125.864 161.717 125.864Z" fill="#F0F1F7"/>
<path d="M180.451 125.864C182.176 125.864 183.574 124.466 183.574 122.741C183.574 121.017 182.176 119.619 180.451 119.619C178.727 119.619 177.329 121.017 177.329 122.741C177.329 124.466 178.727 125.864 180.451 125.864Z" fill="#F0F1F7"/>
<path d="M161.717 144.921C163.442 144.921 164.84 143.523 164.84 141.799C164.84 140.074 163.442 138.676 161.717 138.676C159.993 138.676 158.595 140.074 158.595 141.799C158.595 143.523 159.993 144.921 161.717 144.921Z" fill="#F0F1F7"/>
<path d="M180.451 144.921C182.176 144.921 183.574 143.523 183.574 141.799C183.574 140.074 182.176 138.676 180.451 138.676C178.727 138.676 177.329 140.074 177.329 141.799C177.329 143.523 178.727 144.921 180.451 144.921Z" fill="#F0F1F7"/>
<path d="M180.451 163.87C182.176 163.87 183.574 162.472 183.574 160.748C183.574 159.023 182.176 157.625 180.451 157.625C178.727 157.625 177.329 159.023 177.329 160.748C177.329 162.472 178.727 163.87 180.451 163.87Z" fill="#F0F1F7"/>
<path d="M177.437 116.066C163.656 102.285 144.598 93.7791 123.603 93.7791C122.311 93.7791 121.019 93.7791 119.835 93.8867C119.512 93.8867 119.296 93.8867 118.973 93.8867C118.004 93.9944 117.035 93.9944 116.066 94.1021C115.851 94.1021 115.636 94.1021 115.42 94.2097C114.882 94.3174 114.451 94.3174 113.913 94.4251C113.267 94.5327 112.729 94.5327 112.083 94.6404C111.544 94.7481 111.006 94.8557 110.575 94.8557C110.252 94.9634 110.037 94.9634 109.714 95.0711C108.637 95.2864 107.56 95.5017 106.484 95.7171C106.053 95.8247 105.515 95.9324 105.084 96.0401C104.653 96.1477 104.223 96.2554 103.792 96.3631C103.577 96.3631 103.469 96.4708 103.254 96.4708C102.823 96.5784 102.5 96.6861 102.069 96.7938C101.854 96.9014 101.639 96.9014 101.531 97.0091C100.993 97.1168 100.454 97.3321 100.024 97.4398C99.593 97.5474 99.0547 97.7628 98.624 97.9781C97.8703 98.1934 97.1167 98.5165 96.363 98.8395C95.9323 99.0548 95.394 99.1625 94.9633 99.3778C94.5326 99.5931 94.1019 99.7008 93.6713 99.9161C93.5636 99.9161 93.5636 99.9161 93.5636 100.024C93.1329 100.239 92.8099 100.347 92.3793 100.562C91.5179 100.993 90.6566 101.316 89.7952 101.746C89.3646 101.962 88.9339 102.177 88.6109 102.392C87.7495 102.823 86.9959 103.254 86.1345 103.685C85.7038 103.9 85.3808 104.115 84.9502 104.331C84.5195 104.546 84.1965 104.761 83.7658 105.084C82.5815 105.838 81.2895 106.592 80.1051 107.453C79.7821 107.668 79.4591 107.884 79.1361 108.207C77.5211 109.391 76.0137 110.575 74.5064 111.867C74.291 112.083 73.968 112.298 73.645 112.513C72.4607 113.482 71.384 114.559 70.3073 115.636C70.092 115.851 69.8766 116.066 69.6613 116.282C68.6923 117.251 67.7233 118.22 66.8619 119.296C66.2159 119.942 65.6776 120.696 65.0316 121.342C64.7086 121.665 64.4932 122.096 64.1702 122.419C63.8472 122.742 63.6319 123.172 63.3089 123.495C61.3709 126.079 59.5405 128.771 57.9255 131.571C57.7101 131.894 57.4948 132.217 57.3871 132.54C56.4181 134.37 55.4491 136.2 54.5878 138.031C54.4801 138.354 54.2648 138.677 54.1571 139C53.7264 139.861 53.4034 140.722 53.0804 141.584C52.9728 141.907 52.8651 142.122 52.7574 142.445C52.6497 142.876 52.4344 143.199 52.3267 143.629C51.7884 145.137 51.2501 146.752 50.8194 148.367C50.7117 148.797 50.6041 149.228 50.3887 149.766C50.2811 150.197 50.1734 150.628 50.0657 151.166C49.958 151.597 49.8504 152.135 49.7427 152.566C49.635 152.996 49.5274 153.427 49.5274 153.75C49.4197 154.396 49.2044 155.042 49.0967 155.796C48.989 156.119 48.989 156.442 48.8814 156.765C48.666 158.272 48.4507 159.78 48.2354 161.395C48.2354 161.825 48.1277 162.148 48.1277 162.579C48.02 163.871 47.9124 165.163 47.8047 166.455C47.8047 166.886 47.8047 167.316 47.8047 167.639C47.8047 167.747 47.8047 167.962 47.8047 168.07C47.8047 168.716 47.8047 169.254 47.8047 169.9C47.8047 211.891 81.8278 246.022 123.926 246.022C165.917 246.022 200.047 211.999 200.047 169.9C199.724 148.797 191.111 129.848 177.437 116.066ZM123.603 210.707C100.993 210.707 82.7968 192.403 82.7968 169.9C82.7968 152.781 93.2406 138.138 108.206 132.109C112.944 130.171 118.22 129.094 123.711 129.094C135.016 129.094 145.244 133.616 152.566 141.045C159.887 148.474 164.517 158.703 164.517 169.9C164.409 192.403 146.106 210.707 123.603 210.707Z" fill="#FDD853"/>
<path d="M488.598 197.894C490.322 197.894 491.72 196.496 491.72 194.771C491.72 193.047 490.322 191.649 488.598 191.649C486.873 191.649 485.475 193.047 485.475 194.771C485.475 196.496 486.873 197.894 488.598 197.894Z" fill="#F0F1F7"/>
<path d="M507.224 197.894C508.949 197.894 510.347 196.496 510.347 194.771C510.347 193.047 508.949 191.649 507.224 191.649C505.5 191.649 504.102 193.047 504.102 194.771C504.102 196.496 505.5 197.894 507.224 197.894Z" fill="#F0F1F7"/>
<path d="M525.851 197.894C527.575 197.894 528.973 196.496 528.973 194.771C528.973 193.047 527.575 191.649 525.851 191.649C524.126 191.649 522.729 193.047 522.729 194.771C522.729 196.496 524.126 197.894 525.851 197.894Z" fill="#F0F1F7"/>
<path d="M544.585 197.894C546.31 197.894 547.708 196.496 547.708 194.771C547.708 193.047 546.31 191.649 544.585 191.649C542.861 191.649 541.463 193.047 541.463 194.771C541.463 196.496 542.861 197.894 544.585 197.894Z" fill="#F0F1F7"/>
<path d="M563.212 197.894C564.936 197.894 566.334 196.496 566.334 194.771C566.334 193.047 564.936 191.649 563.212 191.649C561.487 191.649 560.089 193.047 560.089 194.771C560.089 196.496 561.487 197.894 563.212 197.894Z" fill="#F0F1F7"/>
<path d="M581.838 197.894C583.563 197.894 584.961 196.496 584.961 194.771C584.961 193.047 583.563 191.649 581.838 191.649C580.114 191.649 578.716 193.047 578.716 194.771C578.716 196.496 580.114 197.894 581.838 197.894Z" fill="#F0F1F7"/>
<path d="M600.573 197.894C602.297 197.894 603.695 196.496 603.695 194.771C603.695 193.047 602.297 191.649 600.573 191.649C598.848 191.649 597.45 193.047 597.45 194.771C597.45 196.496 598.848 197.894 600.573 197.894Z" fill="#F0F1F7"/>
<path d="M488.598 216.844C490.322 216.844 491.72 215.446 491.72 213.721C491.72 211.997 490.322 210.599 488.598 210.599C486.873 210.599 485.475 211.997 485.475 213.721C485.475 215.446 486.873 216.844 488.598 216.844Z" fill="#F0F1F7"/>
<path d="M507.224 216.844C508.949 216.844 510.347 215.446 510.347 213.721C510.347 211.997 508.949 210.599 507.224 210.599C505.5 210.599 504.102 211.997 504.102 213.721C504.102 215.446 505.5 216.844 507.224 216.844Z" fill="#F0F1F7"/>
<path d="M525.851 216.844C527.575 216.844 528.973 215.446 528.973 213.721C528.973 211.997 527.575 210.599 525.851 210.599C524.126 210.599 522.729 211.997 522.729 213.721C522.729 215.446 524.126 216.844 525.851 216.844Z" fill="#F0F1F7"/>
<path d="M544.585 216.844C546.31 216.844 547.708 215.446 547.708 213.721C547.708 211.997 546.31 210.599 544.585 210.599C542.861 210.599 541.463 211.997 541.463 213.721C541.463 215.446 542.861 216.844 544.585 216.844Z" fill="#F0F1F7"/>
<path d="M563.212 216.844C564.936 216.844 566.334 215.446 566.334 213.721C566.334 211.997 564.936 210.599 563.212 210.599C561.487 210.599 560.089 211.997 560.089 213.721C560.089 215.446 561.487 216.844 563.212 216.844Z" fill="#F0F1F7"/>
<path d="M581.838 216.844C583.563 216.844 584.961 215.446 584.961 213.721C584.961 211.997 583.563 210.599 581.838 210.599C580.114 210.599 578.716 211.997 578.716 213.721C578.716 215.446 580.114 216.844 581.838 216.844Z" fill="#F0F1F7"/>
<path d="M600.573 216.844C602.297 216.844 603.695 215.446 603.695 213.721C603.695 211.997 602.297 210.599 600.573 210.599C598.848 210.599 597.45 211.997 597.45 213.721C597.45 215.446 598.848 216.844 600.573 216.844Z" fill="#F0F1F7"/>
<path d="M488.598 235.793C490.322 235.793 491.72 234.395 491.72 232.671C491.72 230.946 490.322 229.548 488.598 229.548C486.873 229.548 485.475 230.946 485.475 232.671C485.475 234.395 486.873 235.793 488.598 235.793Z" fill="#F0F1F7"/>
<path d="M507.224 235.793C508.949 235.793 510.347 234.395 510.347 232.671C510.347 230.946 508.949 229.548 507.224 229.548C505.5 229.548 504.102 230.946 504.102 232.671C504.102 234.395 505.5 235.793 507.224 235.793Z" fill="#F0F1F7"/>
<path d="M525.851 235.793C527.575 235.793 528.973 234.395 528.973 232.671C528.973 230.946 527.575 229.548 525.851 229.548C524.126 229.548 522.729 230.946 522.729 232.671C522.729 234.395 524.126 235.793 525.851 235.793Z" fill="#F0F1F7"/>
<path d="M544.585 235.793C546.31 235.793 547.708 234.395 547.708 232.671C547.708 230.946 546.31 229.548 544.585 229.548C542.861 229.548 541.463 230.946 541.463 232.671C541.463 234.395 542.861 235.793 544.585 235.793Z" fill="#F0F1F7"/>
<path d="M563.212 235.793C564.936 235.793 566.334 234.395 566.334 232.671C566.334 230.946 564.936 229.548 563.212 229.548C561.487 229.548 560.089 230.946 560.089 232.671C560.089 234.395 561.487 235.793 563.212 235.793Z" fill="#F0F1F7"/>
<path d="M581.838 235.793C583.563 235.793 584.961 234.395 584.961 232.671C584.961 230.946 583.563 229.548 581.838 229.548C580.114 229.548 578.716 230.946 578.716 232.671C578.716 234.395 580.114 235.793 581.838 235.793Z" fill="#F0F1F7"/>
<path d="M600.573 235.793C602.297 235.793 603.695 234.395 603.695 232.671C603.695 230.946 602.297 229.548 600.573 229.548C598.848 229.548 597.45 230.946 597.45 232.671C597.45 234.395 598.848 235.793 600.573 235.793Z" fill="#F0F1F7"/>
<path d="M488.598 254.85C490.322 254.85 491.72 253.452 491.72 251.728C491.72 250.003 490.322 248.605 488.598 248.605C486.873 248.605 485.475 250.003 485.475 251.728C485.475 253.452 486.873 254.85 488.598 254.85Z" fill="#F0F1F7"/>
<path d="M507.224 254.85C508.949 254.85 510.347 253.452 510.347 251.727C510.347 250.003 508.949 248.605 507.224 248.605C505.5 248.605 504.102 250.003 504.102 251.727C504.102 253.452 505.5 254.85 507.224 254.85Z" fill="#F0F1F7"/>
<path d="M525.851 254.85C527.575 254.85 528.973 253.452 528.973 251.727C528.973 250.003 527.575 248.605 525.851 248.605C524.126 248.605 522.729 250.003 522.729 251.727C522.729 253.452 524.126 254.85 525.851 254.85Z" fill="#F0F1F7"/>
<path d="M544.585 254.85C546.31 254.85 547.708 253.452 547.708 251.727C547.708 250.003 546.31 248.605 544.585 248.605C542.861 248.605 541.463 250.003 541.463 251.727C541.463 253.452 542.861 254.85 544.585 254.85Z" fill="#F0F1F7"/>
<path d="M563.212 254.85C564.936 254.85 566.334 253.452 566.334 251.727C566.334 250.003 564.936 248.605 563.212 248.605C561.487 248.605 560.089 250.003 560.089 251.727C560.089 253.452 561.487 254.85 563.212 254.85Z" fill="#F0F1F7"/>
<path d="M581.838 254.85C583.563 254.85 584.961 253.452 584.961 251.727C584.961 250.003 583.563 248.605 581.838 248.605C580.114 248.605 578.716 250.003 578.716 251.727C578.716 253.452 580.114 254.85 581.838 254.85Z" fill="#F0F1F7"/>
<path d="M600.573 254.85C602.297 254.85 603.695 253.452 603.695 251.727C603.695 250.003 602.297 248.605 600.573 248.605C598.848 248.605 597.45 250.003 597.45 251.727C597.45 253.452 598.848 254.85 600.573 254.85Z" fill="#F0F1F7"/>
<path d="M488.598 273.8C490.322 273.8 491.72 272.402 491.72 270.677C491.72 268.953 490.322 267.555 488.598 267.555C486.873 267.555 485.475 268.953 485.475 270.677C485.475 272.402 486.873 273.8 488.598 273.8Z" fill="#F0F1F7"/>
<path d="M507.224 273.8C508.949 273.8 510.347 272.402 510.347 270.677C510.347 268.953 508.949 267.555 507.224 267.555C505.5 267.555 504.102 268.953 504.102 270.677C504.102 272.402 505.5 273.8 507.224 273.8Z" fill="#F0F1F7"/>
<path d="M525.851 273.8C527.575 273.8 528.973 272.402 528.973 270.677C528.973 268.953 527.575 267.555 525.851 267.555C524.126 267.555 522.729 268.953 522.729 270.677C522.729 272.402 524.126 273.8 525.851 273.8Z" fill="#F0F1F7"/>
<path d="M544.585 273.8C546.31 273.8 547.708 272.402 547.708 270.677C547.708 268.953 546.31 267.555 544.585 267.555C542.861 267.555 541.463 268.953 541.463 270.677C541.463 272.402 542.861 273.8 544.585 273.8Z" fill="#F0F1F7"/>
<path d="M563.212 273.8C564.936 273.8 566.334 272.402 566.334 270.677C566.334 268.953 564.936 267.555 563.212 267.555C561.487 267.555 560.089 268.953 560.089 270.677C560.089 272.402 561.487 273.8 563.212 273.8Z" fill="#F0F1F7"/>
<path d="M581.838 273.8C583.563 273.8 584.961 272.402 584.961 270.677C584.961 268.953 583.563 267.555 581.838 267.555C580.114 267.555 578.716 268.953 578.716 270.677C578.716 272.402 580.114 273.8 581.838 273.8Z" fill="#F0F1F7"/>
<path d="M600.573 273.8C602.297 273.8 603.695 272.402 603.695 270.677C603.695 268.953 602.297 267.555 600.573 267.555C598.848 267.555 597.45 268.953 597.45 270.677C597.45 272.402 598.848 273.8 600.573 273.8Z" fill="#F0F1F7"/>
<path d="M488.598 292.749C490.322 292.749 491.72 291.352 491.72 289.627C491.72 287.903 490.322 286.505 488.598 286.505C486.873 286.505 485.475 287.903 485.475 289.627C485.475 291.352 486.873 292.749 488.598 292.749Z" fill="#F0F1F7"/>
<path d="M507.224 292.749C508.949 292.749 510.347 291.352 510.347 289.627C510.347 287.903 508.949 286.505 507.224 286.505C505.5 286.505 504.102 287.903 504.102 289.627C504.102 291.352 505.5 292.749 507.224 292.749Z" fill="#F0F1F7"/>
<path d="M525.851 292.749C527.575 292.749 528.973 291.352 528.973 289.627C528.973 287.903 527.575 286.505 525.851 286.505C524.126 286.505 522.729 287.903 522.729 289.627C522.729 291.352 524.126 292.749 525.851 292.749Z" fill="#F0F1F7"/>
<path d="M544.585 292.749C546.31 292.749 547.708 291.352 547.708 289.627C547.708 287.903 546.31 286.505 544.585 286.505C542.861 286.505 541.463 287.903 541.463 289.627C541.463 291.352 542.861 292.749 544.585 292.749Z" fill="#F0F1F7"/>
<path d="M563.212 292.749C564.936 292.749 566.334 291.352 566.334 289.627C566.334 287.903 564.936 286.505 563.212 286.505C561.487 286.505 560.089 287.903 560.089 289.627C560.089 291.352 561.487 292.749 563.212 292.749Z" fill="#F0F1F7"/>
<path d="M581.838 292.749C583.563 292.749 584.961 291.352 584.961 289.627C584.961 287.903 583.563 286.505 581.838 286.505C580.114 286.505 578.716 287.903 578.716 289.627C578.716 291.352 580.114 292.749 581.838 292.749Z" fill="#F0F1F7"/>
<path d="M600.573 292.749C602.297 292.749 603.695 291.352 603.695 289.627C603.695 287.903 602.297 286.505 600.573 286.505C598.848 286.505 597.45 287.903 597.45 289.627C597.45 291.352 598.848 292.749 600.573 292.749Z" fill="#F0F1F7"/>
<path d="M488.598 311.699C490.322 311.699 491.72 310.301 491.72 308.576C491.72 306.852 490.322 305.454 488.598 305.454C486.873 305.454 485.475 306.852 485.475 308.576C485.475 310.301 486.873 311.699 488.598 311.699Z" fill="#F0F1F7"/>
<path d="M507.224 311.699C508.949 311.699 510.347 310.301 510.347 308.576C510.347 306.852 508.949 305.454 507.224 305.454C505.5 305.454 504.102 306.852 504.102 308.576C504.102 310.301 505.5 311.699 507.224 311.699Z" fill="#F0F1F7"/>
<path d="M525.851 311.699C527.575 311.699 528.973 310.301 528.973 308.576C528.973 306.852 527.575 305.454 525.851 305.454C524.126 305.454 522.729 306.852 522.729 308.576C522.729 310.301 524.126 311.699 525.851 311.699Z" fill="#F0F1F7"/>
<path d="M544.585 311.699C546.31 311.699 547.708 310.301 547.708 308.576C547.708 306.852 546.31 305.454 544.585 305.454C542.861 305.454 541.463 306.852 541.463 308.576C541.463 310.301 542.861 311.699 544.585 311.699Z" fill="#F0F1F7"/>
<path d="M563.212 311.699C564.936 311.699 566.334 310.301 566.334 308.576C566.334 306.852 564.936 305.454 563.212 305.454C561.487 305.454 560.089 306.852 560.089 308.576C560.089 310.301 561.487 311.699 563.212 311.699Z" fill="#F0F1F7"/>
<path d="M581.838 311.699C583.563 311.699 584.961 310.301 584.961 308.576C584.961 306.852 583.563 305.454 581.838 305.454C580.114 305.454 578.716 306.852 578.716 308.576C578.716 310.301 580.114 311.699 581.838 311.699Z" fill="#F0F1F7"/>
<path d="M600.573 311.699C602.297 311.699 603.695 310.301 603.695 308.576C603.695 306.852 602.297 305.454 600.573 305.454C598.848 305.454 597.45 306.852 597.45 308.576C597.45 310.301 598.848 311.699 600.573 311.699Z" fill="#F0F1F7"/>
<path d="M488.598 330.649C490.322 330.649 491.72 329.251 491.72 327.526C491.72 325.802 490.322 324.404 488.598 324.404C486.873 324.404 485.475 325.802 485.475 327.526C485.475 329.251 486.873 330.649 488.598 330.649Z" fill="#F0F1F7"/>
<path d="M507.224 330.649C508.949 330.649 510.347 329.251 510.347 327.526C510.347 325.802 508.949 324.404 507.224 324.404C505.5 324.404 504.102 325.802 504.102 327.526C504.102 329.251 505.5 330.649 507.224 330.649Z" fill="#F0F1F7"/>
<path d="M525.851 330.649C527.575 330.649 528.973 329.251 528.973 327.526C528.973 325.802 527.575 324.404 525.851 324.404C524.126 324.404 522.729 325.802 522.729 327.526C522.729 329.251 524.126 330.649 525.851 330.649Z" fill="#F0F1F7"/>
<path d="M544.585 330.649C546.31 330.649 547.708 329.251 547.708 327.526C547.708 325.802 546.31 324.404 544.585 324.404C542.861 324.404 541.463 325.802 541.463 327.526C541.463 329.251 542.861 330.649 544.585 330.649Z" fill="#F0F1F7"/>
<path d="M563.212 330.649C564.936 330.649 566.334 329.251 566.334 327.526C566.334 325.802 564.936 324.404 563.212 324.404C561.487 324.404 560.089 325.802 560.089 327.526C560.089 329.251 561.487 330.649 563.212 330.649Z" fill="#F0F1F7"/>
<path d="M581.838 330.649C583.563 330.649 584.961 329.251 584.961 327.526C584.961 325.802 583.563 324.404 581.838 324.404C580.114 324.404 578.716 325.802 578.716 327.526C578.716 329.251 580.114 330.649 581.838 330.649Z" fill="#F0F1F7"/>
<path d="M600.573 330.649C602.297 330.649 603.695 329.251 603.695 327.526C603.695 325.802 602.297 324.404 600.573 324.404C598.848 324.404 597.45 325.802 597.45 327.526C597.45 329.251 598.848 330.649 600.573 330.649Z" fill="#F0F1F7"/>
<path d="M488.598 349.706C490.322 349.706 491.72 348.308 491.72 346.584C491.72 344.859 490.322 343.461 488.598 343.461C486.873 343.461 485.475 344.859 485.475 346.584C485.475 348.308 486.873 349.706 488.598 349.706Z" fill="#F0F1F7"/>
<path d="M507.224 349.706C508.949 349.706 510.347 348.308 510.347 346.584C510.347 344.859 508.949 343.461 507.224 343.461C505.5 343.461 504.102 344.859 504.102 346.584C504.102 348.308 505.5 349.706 507.224 349.706Z" fill="#F0F1F7"/>
<path d="M525.851 349.706C527.575 349.706 528.973 348.308 528.973 346.584C528.973 344.859 527.575 343.461 525.851 343.461C524.126 343.461 522.729 344.859 522.729 346.584C522.729 348.308 524.126 349.706 525.851 349.706Z" fill="#F0F1F7"/>
<path d="M544.585 349.706C546.31 349.706 547.708 348.308 547.708 346.584C547.708 344.859 546.31 343.461 544.585 343.461C542.861 343.461 541.463 344.859 541.463 346.584C541.463 348.308 542.861 349.706 544.585 349.706Z" fill="#F0F1F7"/>
<path d="M563.212 349.706C564.936 349.706 566.334 348.308 566.334 346.584C566.334 344.859 564.936 343.461 563.212 343.461C561.487 343.461 560.089 344.859 560.089 346.584C560.089 348.308 561.487 349.706 563.212 349.706Z" fill="#F0F1F7"/>
<path d="M581.838 349.706C583.563 349.706 584.961 348.308 584.961 346.584C584.961 344.859 583.563 343.461 581.838 343.461C580.114 343.461 578.716 344.859 578.716 346.584C578.716 348.308 580.114 349.706 581.838 349.706Z" fill="#F0F1F7"/>
<path d="M600.573 349.706C602.297 349.706 603.695 348.308 603.695 346.584C603.695 344.859 602.297 343.461 600.573 343.461C598.848 343.461 597.45 344.859 597.45 346.584C597.45 348.308 598.848 349.706 600.573 349.706Z" fill="#F0F1F7"/>
<path d="M531.383 500H179.616C174.877 500 171 496.131 171 491.402V291.598C171 286.869 174.877 283 179.616 283H530.63C535.799 283 540 287.192 540 292.351V491.509C540 496.238 536.123 500 531.383 500Z" fill="#9FA6AD"/>
<path d="M526.3 493H184.7C181.581 493 179 490.415 179 487.292V295.708C179 292.585 181.581 290 184.7 290H526.3C529.419 290 532 292.585 532 295.708V487.292C532 490.415 529.419 493 526.3 493Z" fill="white"/>
<path d="M411 500H300V563H411V500Z" fill="#9FA6AD"/>
<path d="M411 500H300V513H411V500Z" fill="#535A60"/>
<path d="M391.05 157.518C391.05 166.455 389.328 175.283 385.99 183.466C382.652 191.649 377.807 199.186 371.455 205.646C366.179 211.137 363.595 218.674 364.564 226.21C364.564 226.426 364.672 226.641 364.672 226.856L367.579 245.052L314.821 271.539L314.391 271.754L305.131 249.144C303.516 245.16 299.533 242.468 295.226 242.468H281.337C274.984 242.468 270.032 236.977 270.678 230.732L271.216 224.918C271.216 224.811 271.216 224.811 271.216 224.703C271.216 223.949 270.785 223.303 270.139 222.873C269.493 222.442 268.955 222.011 268.524 221.473C268.309 221.258 268.201 221.042 268.094 220.827C267.555 219.966 267.34 218.997 267.34 218.028C267.34 216.843 267.986 215.767 268.955 215.121L272.077 213.183V209.952L269.709 208.768C268.524 208.23 267.986 206.83 268.309 205.538L270.032 199.724C270.247 198.97 269.924 198.217 269.278 197.894L263.787 194.771C261.418 193.372 260.772 190.142 262.495 187.988L273.369 174.53C275.307 172.161 276.061 169.039 275.523 166.024L275.415 165.27C274.984 162.794 275.415 160.21 276.707 158.057L287.689 139.322C289.196 136.738 290.919 134.37 292.857 132.108C302.763 120.373 317.405 113.482 333.017 113.482H346.584C352.398 113.482 357.996 114.666 363.272 116.712C368.548 118.865 373.393 121.988 377.484 126.079C381.683 130.278 385.021 135.123 387.282 140.507C389.866 145.89 391.05 151.596 391.05 157.518Z" fill="#E28520"/>
<path d="M326.45 215.875L319.451 234.609C316.436 242.792 314.821 251.513 314.821 260.234V271.647L314.391 271.862L305.131 249.252C303.516 245.268 299.533 242.576 295.226 242.576H282.09C286.505 242.576 290.811 241.823 294.903 240.315L304.378 236.87C312.237 233.963 318.913 228.472 323.22 221.258L326.45 215.875Z" fill="#C96909"/>
<path d="M203.6 324.942L197.786 309.546C196.171 305.454 195.848 300.932 196.925 296.626L197.033 296.087C197.786 292.642 197.786 289.089 196.925 285.751L189.711 256.896C189.173 254.635 187.988 252.482 186.266 250.759C184.758 249.144 183.574 247.206 183.036 245.053L181.851 240.961C181.636 240.208 180.882 239.885 180.129 240.1C177.975 240.961 176.576 243.007 176.683 245.376L176.791 250.221L154.719 223.088C153.535 221.689 151.381 221.581 150.197 223.088C148.582 225.026 148.367 227.826 149.766 229.979L169.254 259.911L160.21 252.051C159.241 251.19 157.841 251.082 156.657 251.728L154.396 253.128C153.104 253.882 152.566 255.604 153.212 257.004L154.181 258.834L150.52 261.741C149.551 262.495 149.12 263.895 149.551 265.079L150.735 268.417L147.936 270.893C147.075 271.647 146.752 272.723 146.967 273.8L148.367 280.153C150.197 288.766 154.288 296.733 160.21 303.301L164.84 308.469C166.886 310.73 168.285 313.53 168.931 316.652L172.161 331.833" fill="#E28520"/>
<path d="M390.99 358.864C390.882 369.755 389.374 380.645 386.573 391.32C386.573 391.32 386.573 391.32 386.573 391.428C386.357 392.506 386.034 393.477 385.711 394.555C384.31 399.299 382.694 404.043 380.863 408.68C380.324 410.082 379.678 411.591 379.139 412.993C376.769 419.57 374.83 426.256 373.429 433.049C372.675 436.93 372.029 440.92 371.598 444.91C370.197 456.878 370.52 469.063 372.352 481.031L374.183 493H234.021V467.014L228.096 466.69C227.018 466.69 226.049 466.583 224.971 466.367C216.029 464.857 208.596 458.496 205.687 449.762L172.72 350.885L167.333 335.358C166.256 332.123 167.872 328.673 170.996 327.487L199.977 316.165L230.358 394.77L233.267 402.21L247.919 378.704L286.595 316.812L291.336 309.264V294.816C291.336 285.866 296.291 277.671 304.264 273.466L346.819 251.362C354.791 247.157 363.625 245 372.675 245H372.783L376.769 266.673L388.835 332.77C390.343 341.181 391.098 350.023 390.99 358.864Z" fill="#3D8F58"/>
<path d="M328.818 388.467L234.178 492.689V466.634C237.839 466.634 241.392 465.342 244.191 462.865L328.818 388.467Z" fill="#242729"/>
<path d="M233.317 401.817L224.703 415.599L230.517 394.388L233.317 401.817Z" fill="#242729"/>
<path d="M361.226 355.843C362.411 342.169 363.487 328.065 359.073 315.037C354.766 302.009 343.461 290.273 329.787 289.842C316.652 289.412 305.454 298.886 295.764 307.715C302.009 303.839 308.684 300.179 315.683 298.025C322.681 295.979 330.541 295.656 337.216 298.671C344.645 302.009 349.921 308.9 353.582 316.113C359.611 327.957 362.626 342.6 361.226 355.843Z" fill="#242729"/>
<path d="M369.948 197.356L371.993 198.432C379.638 202.201 384.052 210.383 382.975 218.781L379.745 246.344C378.13 260.557 378.453 274.984 381.037 289.089C384.375 307.715 392.45 325.265 404.617 339.8L433.579 374.469C427.012 346.906 425.074 318.59 427.765 290.381L428.842 278.645C432.61 239.238 412.261 201.447 377.269 182.928L376.3 182.39" fill="#242729"/>
<path d="M373.716 202.739L385.021 183.682L389.543 186.266C391.373 187.342 392.019 189.603 390.943 191.434L383.406 204.785C382.222 206.83 379.53 207.369 377.7 205.861L373.716 202.739Z" fill="#5F67FA"/>
<path d="M391.05 157.518C391.05 166.455 389.328 175.284 385.99 183.466C382.652 191.649 377.807 199.186 371.455 205.646C366.179 211.137 363.595 218.674 364.564 226.211L353.259 211.352C351.106 208.553 351.106 204.569 353.367 201.77C356.704 197.571 359.073 192.726 360.257 187.45C361.549 181.636 357.135 176.145 351.106 176.145C347.445 176.145 344.107 178.298 342.6 181.636L336.247 195.418H333.771V184.22C333.771 180.021 331.833 175.93 328.603 173.238L317.19 163.763C313.529 160.641 311.053 156.334 310.515 151.489L310.299 149.228C309.438 142.122 304.701 136.2 298.025 133.724L293.073 131.893C302.978 120.158 317.621 113.267 333.233 113.267H346.799C352.613 113.267 358.212 114.451 363.487 116.497C368.763 118.65 373.608 121.773 377.7 125.864C381.899 130.063 385.236 134.908 387.497 140.292C389.866 145.89 391.05 151.597 391.05 157.518Z" fill="#242729"/>
<path d="M284.674 213.075L275.523 219.643C273.692 220.935 271.539 221.689 269.278 221.689H268.74C268.524 221.473 268.417 221.258 268.309 221.043C267.878 220.289 267.555 219.32 267.555 218.351C267.555 217.274 268.309 215.875 269.278 215.229L272.293 213.398V209.953L269.924 208.768C268.74 208.23 268.201 206.83 268.524 205.538L268.74 205.431C270.462 204.462 272.508 204.569 274.123 205.646L284.674 213.075Z" fill="#E05332"/>
<path d="M272.292 213.398V209.953L280.152 212.968C280.368 213.075 280.26 213.291 280.045 213.291H272.292V213.398Z" fill="#FFFFFB"/>
<path d="M341.846 178.406L341.2 181.528L276.599 171.515L277.137 168.501L341.846 178.406Z" fill="#242729"/>
<path d="M274.661 185.727C273.692 185.62 272.938 184.758 273.046 183.682L274.876 160.102C274.984 159.133 275.846 158.487 276.707 158.595L278.753 158.918C279.614 159.026 280.26 159.887 280.152 160.748L276.707 184.112C276.599 185.189 275.63 185.943 274.661 185.727Z" fill="#242729"/>
<path d="M234.178 441.87V466.633L228.256 466.31C227.18 466.31 226.211 466.095 225.134 465.987L234.178 441.87Z" fill="#2F6F44"/>
<path d="M376.731 266.586H368.44C364.349 266.586 360.365 267.448 356.704 269.278L305.777 293.611C301.363 295.764 297.702 298.994 295.118 303.086L291.458 309.008V294.58C291.458 285.644 296.41 277.353 304.378 273.262L346.907 251.19C354.874 246.991 363.703 244.837 372.747 244.837L376.731 266.586Z" fill="#2F6F44"/>
<path d="M554.275 465L551.153 477.718H416.029L439.178 564.807L527.789 574.938H580.761L554.275 465Z" fill="#242729"/>
<path d="M386 575H527.644L551 478H409.464L386 575Z" fill="#E2E2E2"/>
<path d="M457.589 501.322H445.746C444.885 501.322 444.346 500.568 444.562 499.813L446.607 491.191C446.715 490.652 447.253 490.221 447.792 490.221H459.635C460.497 490.221 461.035 490.975 460.82 491.73L458.774 500.352C458.666 500.891 458.128 501.322 457.589 501.322Z" fill="#F48024"/>
<path d="M481.492 501.322H469.648C468.787 501.322 468.249 500.568 468.464 499.813L470.51 491.191C470.617 490.652 471.156 490.221 471.694 490.221H483.538C484.399 490.221 484.937 490.975 484.722 491.73L482.676 500.352C482.568 500.891 482.03 501.322 481.492 501.322Z" fill="#FFFFFB"/>
<path d="M505.394 501.322H493.55C492.689 501.322 492.151 500.568 492.366 499.813L494.412 491.191C494.519 490.652 495.058 490.221 495.596 490.221H507.44C508.301 490.221 508.839 490.975 508.624 491.73L506.578 500.352C506.471 500.891 506.04 501.322 505.394 501.322Z" fill="#3D8F58"/>
<path d="M529.404 501.322H517.56C516.699 501.322 516.161 500.568 516.376 499.813L518.422 491.191C518.529 490.652 519.068 490.221 519.606 490.221H531.45C532.311 490.221 532.849 490.975 532.634 491.73L530.588 500.352C530.481 500.891 529.942 501.322 529.404 501.322Z" fill="#3D8F58"/>
<path d="M428.734 521.154H416.891C416.137 521.154 415.491 520.4 415.707 519.645L417.752 511.023C417.86 510.484 418.398 510.053 418.937 510.053H430.78C431.534 510.053 432.18 510.807 431.964 511.562L429.919 520.184C429.811 520.723 429.273 521.154 428.734 521.154Z" fill="#FFFFFB"/>
<path d="M452.637 521.154H440.793C440.04 521.154 439.394 520.4 439.609 519.645L441.655 511.023C441.762 510.484 442.301 510.053 442.839 510.053H454.682C455.436 510.053 456.082 510.807 455.867 511.562L453.821 520.184C453.713 520.723 453.175 521.154 452.637 521.154Z" fill="#5F67FA"/>
<path d="M476.539 521.154H464.696C463.942 521.154 463.296 520.4 463.511 519.645L465.557 511.023C465.665 510.484 466.203 510.053 466.741 510.053H478.585C479.338 510.053 479.984 510.807 479.769 511.562L477.723 520.184C477.616 520.723 477.077 521.154 476.539 521.154Z" fill="#242729"/>
<path d="M500.441 521.154H488.598C487.844 521.154 487.198 520.4 487.414 519.645L489.459 511.023C489.567 510.484 490.105 510.053 490.644 510.053H502.487C503.241 510.053 503.887 510.807 503.671 511.562L501.626 520.184C501.518 520.723 501.087 521.154 500.441 521.154Z" fill="#242729"/>
<path d="M524.344 521.154H512.5C511.747 521.154 511.101 520.4 511.316 519.645L513.362 511.023C513.469 510.484 514.008 510.053 514.546 510.053H526.389C527.143 510.053 527.789 510.807 527.574 511.562L525.528 520.184C525.528 520.723 524.99 521.154 524.344 521.154Z" fill="#FFFFFB"/>
<path d="M423.674 540.987H411.83C410.969 540.987 410.431 540.232 410.646 539.478L412.692 530.855C412.799 530.316 413.338 529.885 413.876 529.885H425.72C426.581 529.885 427.119 530.64 426.904 531.394L424.858 540.017C424.751 540.663 424.32 540.987 423.674 540.987Z" fill="#5F67FA"/>
<path d="M447.684 540.987H435.84C434.979 540.987 434.441 540.232 434.656 539.478L436.702 530.855C436.809 530.316 437.348 529.885 437.886 529.885H449.73C450.591 529.885 451.129 530.64 450.914 531.394L448.868 540.017C448.761 540.663 448.222 540.987 447.684 540.987Z" fill="#FFFFFB"/>
<path d="M471.586 540.987H459.743C458.881 540.987 458.343 540.232 458.558 539.478L460.604 530.855C460.712 530.316 461.25 529.885 461.789 529.885H473.632C474.493 529.885 475.032 530.64 474.816 531.394L472.771 540.017C472.663 540.663 472.125 540.987 471.586 540.987Z" fill="#FFFFFB"/>
<path d="M495.488 540.987H483.645C482.784 540.987 482.245 540.232 482.461 539.478L484.506 530.855C484.614 530.316 485.152 529.885 485.691 529.885H497.534C498.395 529.885 498.934 530.64 498.718 531.394L496.673 540.017C496.565 540.663 496.134 540.987 495.488 540.987Z" fill="#9FA6AD"/>
<path d="M519.391 540.987H507.547C506.686 540.987 506.148 540.232 506.363 539.478L508.409 530.855C508.516 530.316 509.055 529.885 509.593 529.885H521.436C522.298 529.885 522.836 530.64 522.621 531.394L520.575 540.017C520.467 540.663 520.037 540.987 519.391 540.987Z" fill="#F48024"/>
<path d="M418.721 560.926H406.878C406.124 560.926 405.478 560.172 405.693 559.417L407.739 550.687C407.847 550.148 408.385 549.717 408.923 549.717H420.767C421.521 549.717 422.167 550.471 421.951 551.226L419.906 559.956C419.798 560.495 419.367 560.926 418.721 560.926Z" fill="#FFFFFB"/>
<path d="M442.731 560.926H430.888C430.134 560.926 429.488 560.172 429.703 559.417L431.749 550.687C431.857 550.148 432.395 549.717 432.933 549.717H444.777C445.531 549.717 446.177 550.471 445.961 551.226L443.916 559.956C443.808 560.495 443.27 560.926 442.731 560.926Z" fill="#3D8F58"/>
<path d="M466.634 560.926H454.79C454.036 560.926 453.39 560.172 453.606 559.417L455.651 550.687C455.759 550.148 456.297 549.717 456.836 549.717H468.679C469.433 549.717 470.079 550.471 469.864 551.226L467.818 559.956C467.71 560.495 467.172 560.926 466.634 560.926Z" fill="#F48024"/>
<path fill-rule="evenodd" clip-rule="evenodd" d="M388.596 563L385.693 575H272.615C272.615 568.405 277.999 563 284.567 563H388.596Z" fill="#242729"/>
<path d="M385.775 394.388C384.375 399.233 382.76 403.863 380.93 408.493C380.391 409.892 379.745 411.4 379.207 412.799C376.838 419.367 374.9 426.043 373.5 432.826L349.598 441.87L363.272 430.995C371.993 423.997 378.561 414.737 382.329 404.186L385.775 394.388Z" fill="#2F6F44"/>
<path d="M172 534H47V546H172V534Z" fill="#3D8F58"/>
<path d="M74.1833 534.034H62.8782V545.985H74.1833V534.034Z" fill="#242729"/>
<path d="M155.796 534.034H144.49V545.985H155.796V534.034Z" fill="#242729"/>
<path d="M88.9339 502.594H112.406C116.82 502.594 119.727 507.224 117.681 511.208L112.298 521.759C111.329 523.697 109.283 524.989 107.022 524.989H84.4119" stroke="#242729" stroke-width="4.30672" stroke-miterlimit="10"/>
<path d="M93.9463 534H72.161C68.8341 534 66.1512 531.552 65.6146 528.359L61 496H105L100.385 528.359C99.9561 531.552 97.1659 534 93.9463 534Z" fill="#FFB500"/>
<path d="M201 572H82.5316C80.6053 572 79 570.333 79 568.333V553.667C79 551.667 80.6053 550 82.5316 550H201V572Z" fill="white"/>
<path d="M77.9207 555H197" stroke="#242729" stroke-width="2" stroke-miterlimit="10"/>
<path d="M77.9207 561H197" stroke="#242729" stroke-width="2" stroke-miterlimit="10"/>
<path d="M77.9207 567H197" stroke="#242729" stroke-width="2" stroke-miterlimit="10"/>
<path fill-rule="evenodd" clip-rule="evenodd" d="M80.5 576H196.892H197V572H82.5605C80.6184 572 79 570.336 79 568.339V554.707C79 552.71 80.6184 550 82.5605 550H197V546H80C76.0079 546 74 549.346 74 553.472V568.528C74 572.654 76.5079 576 80.5 576Z" fill="#5F67FA"/>
<path d="M123.603 93.7791V128.987C118.112 128.987 112.944 130.063 108.099 132.001C93.2406 138.138 82.6891 152.673 82.6891 169.793H47.4817C47.4817 169.147 47.4817 168.608 47.4817 167.962C47.4817 167.855 47.4817 167.639 47.4817 167.532C47.4817 167.101 47.4817 166.67 47.4817 166.347C47.5894 165.055 47.5894 163.763 47.8047 162.471C47.8047 162.148 47.9124 161.718 47.9124 161.287C48.1277 159.78 48.343 158.165 48.5584 156.657C48.666 156.334 48.666 156.011 48.7737 155.688C48.8814 155.042 48.989 154.396 49.2044 153.642C49.312 153.212 49.4197 152.781 49.4197 152.458C49.5274 152.027 49.6351 151.489 49.7427 151.058C49.8504 150.628 49.9581 150.197 50.0657 149.659C50.1734 149.228 50.2811 148.69 50.4964 148.259C50.9271 146.644 51.4654 145.137 52.0037 143.522C52.1114 143.091 52.3268 142.768 52.4344 142.337C52.5421 142.014 52.6498 141.799 52.7574 141.476C53.0804 140.615 53.4034 139.753 53.8341 138.892C53.9418 138.569 54.1571 138.246 54.2648 137.923C55.1261 136.093 56.0951 134.262 57.0641 132.432C57.2795 132.109 57.3872 131.786 57.6025 131.463C59.2175 128.664 61.0479 125.972 62.9859 123.388C63.3089 123.065 63.5242 122.634 63.8472 122.311C64.1702 121.988 64.3856 121.557 64.7086 121.234C65.2469 120.481 65.8929 119.835 66.5389 119.189C67.5079 118.112 68.3693 117.143 69.3383 116.174C69.5536 115.959 69.769 115.743 69.9843 115.528C71.061 114.451 72.1377 113.375 73.322 112.406C73.5374 112.19 73.8604 111.975 74.1834 111.76C75.6907 110.468 77.1981 109.283 78.8131 108.099C79.1361 107.884 79.4591 107.668 79.7821 107.345C80.9665 106.484 82.1508 105.73 83.4428 104.977C83.8735 104.761 84.1965 104.546 84.6272 104.223C85.0578 104.008 85.3808 103.792 85.8115 103.577C86.6729 103.146 87.4265 102.716 88.2879 102.285C88.7186 102.069 89.1492 101.854 89.4722 101.639C90.3336 101.208 91.1949 100.777 92.0563 100.454C92.4869 100.239 92.8099 100.131 93.2406 99.9161C93.2406 99.9161 93.3483 99.9161 93.3483 99.8085C93.779 99.5931 94.2096 99.4855 94.6403 99.2701C95.071 99.0548 95.6093 98.8395 96.04 98.7318C96.7937 98.4088 97.5473 98.1934 98.301 97.8704C98.7317 97.6551 99.27 97.5474 99.7007 97.3321C100.239 97.1168 100.67 97.0091 101.208 96.9014C101.423 96.7938 101.639 96.7938 101.746 96.6861C102.177 96.5784 102.5 96.4708 102.931 96.3631C103.146 96.2554 103.254 96.2554 103.469 96.2554C103.9 96.1478 104.33 96.0401 104.761 95.9324C105.192 95.8247 105.73 95.7171 106.161 95.6094C107.237 95.3941 108.314 95.1787 109.391 94.9634C109.714 94.8557 109.929 94.8557 110.252 94.7481C110.791 94.6404 111.329 94.5327 111.76 94.5327C112.406 94.4251 112.944 94.3174 113.59 94.3174C114.128 94.2097 114.559 94.2097 115.097 94.1021C115.313 94.1021 115.528 94.1021 115.743 93.9944C116.712 93.8867 117.681 93.7791 118.65 93.7791C118.973 93.7791 119.189 93.7791 119.512 93.7791C121.019 93.7791 122.311 93.7791 123.603 93.7791Z" fill="#5F67FA"/>
<path d="M177.437 116.066L152.458 140.938C145.029 133.509 134.908 128.987 123.603 128.987V93.7791C144.598 93.7791 163.656 102.285 177.437 116.066Z" fill="#F48024"/>
<path d="M123.603 210.706V245.914C81.6125 245.914 47.4817 211.891 47.4817 169.792H82.6891C82.6891 192.403 100.993 210.706 123.603 210.706Z" fill="#FFB500"/>
<path d="M123.603 93.7791V128.987C118.112 128.987 112.944 130.063 108.099 132.001L94.7478 99.3778C95.1785 99.1625 95.7168 98.9471 96.1475 98.8395C96.9012 98.5165 97.6548 98.3011 98.4085 97.9781C98.8392 97.7628 99.3775 97.6551 99.8082 97.4398C100.347 97.2244 100.777 97.1168 101.316 97.0091C101.531 96.9014 101.746 96.9014 101.854 96.7938C102.285 96.6861 102.608 96.5784 103.038 96.4708C103.254 96.3631 103.361 96.3631 103.577 96.3631C104.007 96.2554 104.438 96.1477 104.869 96.0401C105.299 95.9324 105.838 95.8247 106.268 95.7171C107.345 95.5017 108.422 95.2864 109.498 95.0711C109.821 94.9634 110.037 94.9634 110.36 94.8557C110.898 94.7481 111.436 94.6404 111.867 94.6404C112.513 94.5327 113.051 94.4251 113.697 94.4251C114.236 94.3174 114.666 94.3174 115.205 94.2097C115.42 94.2097 115.635 94.2097 115.851 94.1021C116.82 93.9944 117.789 93.8867 118.758 93.8867C119.081 93.8867 119.296 93.8867 119.619 93.8867C121.019 93.7791 122.311 93.7791 123.603 93.7791Z" fill="#242729"/>
<path d="M554 465L550.893 478H410L413.107 465H554Z" fill="#F48024"/>
<path fill-rule="evenodd" clip-rule="evenodd" d="M505.154 401H562.389C567.125 401 571 397.152 571 392.448V330.552C571 325.848 567.125 322 562.389 322H424.611C419.875 322 416 325.848 416 330.552V392.448C416 397.152 419.875 401 424.611 401H481.785L493.417 413L505.154 401Z" fill="#5F67FA"/>
<path d="M427 342H471" stroke="#242729" stroke-width="2" stroke-miterlimit="10"/>
<path d="M427 354H471" stroke="#242729" stroke-width="2" stroke-miterlimit="10"/>
<path d="M427 366H471" stroke="#242729" stroke-width="2" stroke-miterlimit="10"/>
<path d="M427 378H459" stroke="#242729" stroke-width="2" stroke-miterlimit="10"/>
<path d="M555.606 388H486.394C483.977 388 482 386.116 482 383.814V338.186C482 335.884 483.977 334 486.394 334H555.606C558.023 334 560 335.884 560 338.186V383.814C560 386.116 558.023 388 555.606 388Z" fill="#FFFFFB"/>
<path d="M505.609 347.291V352.314L496.78 361L505.609 369.581V374.605L491.505 361L505.609 347.291Z" fill="#FFB500"/>
<path d="M534.895 374.605V369.581L543.831 361L534.895 352.314V347.291L548.999 361L534.895 374.605Z" fill="#FFB500"/>
<path d="M511.1 374.605H515.515L529.404 347.291H524.99L511.1 374.605Z" fill="#FFB500"/>
</svg>
